<svg width="811" height="384" viewBox="0 0 811 384" fill="none" xmlns="http://www.w3.org/2000/svg">
<path d="M565.355 266.831C522.727 266.831 488.092 232.212 488.092 189.605C488.092 146.997 522.727 112.378 565.355 112.378C588.268 112.378 609.582 122.498 624.502 139.541L614.377 148.062C602.122 133.682 584.538 125.161 565.355 125.161C530.187 125.161 501.413 153.921 501.413 189.072C501.413 224.223 530.187 252.984 565.355 252.984C582.939 252.984 599.458 246.06 611.713 233.277L621.305 242.332C606.918 258.309 587.202 266.831 565.355 266.831Z" fill="#CCCCCC"/>
<path d="M168.915 188.005H155.594V384H168.915V188.005Z" fill="#CCCCCC"/>
<path d="M811 267.362H797.679V201.32C797.679 166.169 768.905 137.409 733.737 137.409C698.569 137.409 669.795 166.169 669.795 201.32H656.474C656.474 158.712 691.109 124.094 733.737 124.094C776.365 124.094 811 158.712 811 201.32V267.362Z" fill="#CCCCCC"/>
<path d="M669.795 0H656.474V266.83H669.795V0Z" fill="#CCCCCC"/>
<path d="M77.2634 266.831C34.6353 266.831 0 232.212 0 189.605C0 146.997 34.6353 112.378 77.2634 112.378C119.891 112.378 154.527 146.997 154.527 189.605C154.527 232.212 119.891 266.831 77.2634 266.831ZM77.2634 125.693C42.0952 125.693 13.3213 154.453 13.3213 189.605C13.3213 224.756 42.0952 253.516 77.2634 253.516C112.432 253.516 141.205 224.756 141.205 189.605C141.205 154.453 112.432 125.693 77.2634 125.693Z" fill="url(#paint0_linear_199_3)"/>
<path d="M388.981 266.831C346.353 266.831 311.718 232.212 311.718 189.605C311.718 146.997 346.353 112.378 388.981 112.378C431.609 112.378 466.245 146.997 466.245 189.605C466.245 232.212 431.609 266.831 388.981 266.831ZM388.981 125.693C353.813 125.693 325.039 154.453 325.039 189.605C325.039 224.756 353.813 253.516 388.981 253.516C424.149 253.516 452.923 224.756 452.923 189.605C452.923 154.453 424.149 125.693 388.981 125.693Z" fill="url(#paint1_linear_199_3)"/>
<path d="M232.857 266.831C190.229 266.831 155.594 232.212 155.594 189.605C155.594 146.997 190.229 112.378 232.857 112.378C275.485 112.378 310.12 146.997 310.12 189.605C310.12 232.212 275.485 266.831 232.857 266.831ZM232.857 125.693C197.689 125.693 168.915 154.453 168.915 189.605C168.915 224.756 197.689 253.516 232.857 253.516C268.025 253.516 296.799 224.756 296.799 189.605C296.799 154.453 268.558 125.693 232.857 125.693Z" fill="url(#paint2_linear_199_3)"/>
<defs>
<linearGradient id="paint0_linear_199_3" x1="-0.0223797" y1="112.581" x2="154.454" y2="112.581" gradientUnits="userSpaceOnUse">
<stop offset="0.0195709" stop-color="#1CE4E6"/>
<stop offset="0.2606" stop-color="#1BCDFF"/>
<stop offset="0.5466" stop-color="#6BA0FF"/>
<stop offset="0.6691" stop-color="#4F92FF"/>
<stop offset="0.7424" stop-color="#3C88FF"/>
<stop offset="0.8197" stop-color="#2B94FF"/>
<stop offset="0.9651" stop-color="#00B0FF"/>
</linearGradient>
<linearGradient id="paint1_linear_199_3" x1="311.638" y1="112.581" x2="466.115" y2="112.581" gradientUnits="userSpaceOnUse">
<stop offset="0.0195709" stop-color="#1CE4E6"/>
<stop offset="0.2606" stop-color="#1BCDFF"/>
<stop offset="0.5466" stop-color="#6BA0FF"/>
<stop offset="0.6691" stop-color="#4F92FF"/>
<stop offset="0.7424" stop-color="#3C88FF"/>
<stop offset="0.8197" stop-color="#2B94FF"/>
<stop offset="0.9651" stop-color="#00B0FF"/>
</linearGradient>
<linearGradient id="paint2_linear_199_3" x1="310.325" y1="266.983" x2="155.849" y2="266.983" gradientUnits="userSpaceOnUse">
<stop offset="0.0195709" stop-color="#1CE4E6"/>
<stop offset="0.2606" stop-color="#1BCDFF"/>
<stop offset="0.5466" stop-color="#6BA0FF"/>
<stop offset="0.6691" stop-color="#4F92FF"/>
<stop offset="0.7424" stop-color="#3C88FF"/>
<stop offset="0.8197" stop-color="#2B94FF"/>
<stop offset="0.9651" stop-color="#00B0FF"/>
</linearGradient>
</defs>
</svg>
