<svg width="80" height="80" viewBox="0 0 80 80" fill="none" xmlns="http://www.w3.org/2000/svg">
<path d="M40 4.08451C59.7183 4.08451 75.9155 20.1408 75.9155 40C75.9155 59.8592 59.7183 75.7747 40 75.7747C20.2817 75.7747 4.08451 59.7183 4.08451 40C4.08451 20.2817 20.2817 4.08451 40 4.08451ZM40 0C17.8873 0 0 17.8873 0 40C0 62.1127 17.8873 80 40 80C62.1127 80 80 62.1127 80 40C80 17.8873 62.1127 0 40 0Z" fill="url(#paint0_linear_2_348)"/>
<path d="M40 4.08451C59.7183 4.08451 75.9155 20.1408 75.9155 40C75.9155 59.8592 59.7183 75.7747 40 75.7747C20.2817 75.7747 4.08451 59.7183 4.08451 40C4.08451 20.2817 20.2817 4.08451 40 4.08451ZM40 0C17.8873 0 0 17.8873 0 40C0 62.1127 17.8873 80 40 80C62.1127 80 80 62.1127 80 40C80 17.8873 62.1127 0 40 0Z" fill="url(#paint1_linear_2_348)"/>
<path d="M40.0001 8.87354C57.0424 8.87354 70.8451 22.8173 70.8451 40.0003C70.8451 57.1834 57.0424 71.1271 40.0001 71.1271C22.9578 71.1271 9.15503 57.0426 9.15503 40.0003C9.15503 22.9581 22.9578 8.87354 40.0001 8.87354ZM40.0001 4.64819C20.5636 4.64819 4.92969 20.4229 4.92969 40.0003C4.92969 59.5778 20.5636 75.2115 39.8593 75.2115C59.155 75.2115 74.7889 59.437 74.7889 40.0003C74.7889 20.5637 59.2958 4.64819 40.0001 4.64819Z" fill="url(#paint2_linear_2_348)"/>
<path d="M39.7188 13.6619C53.9441 13.6619 65.6342 25.3521 65.6342 39.8591C65.6342 54.3661 53.9441 66.0563 39.7188 66.0563C25.4934 66.0563 13.8033 54.3661 13.8033 39.8591C13.8033 25.3521 25.4934 13.6619 39.7188 13.6619ZM39.7188 9.57739C23.099 9.57739 9.71875 23.0985 9.71875 39.8591C9.71875 56.6197 23.099 70.1407 39.7188 70.1407C56.3385 70.1407 69.7188 56.6197 69.7188 39.8591C69.7188 23.0985 56.3385 9.57739 39.7188 9.57739Z" fill="url(#paint3_linear_2_348)"/>
<defs>
<linearGradient id="paint0_linear_2_348" x1="-0.0253521" y1="-0.0605656" x2="80.0536" y2="-0.0605656" gradientUnits="userSpaceOnUse">
<stop offset="0.0195709" stop-color="#1CE4E6"/>
<stop offset="0.2606" stop-color="#1BCDFF"/>
<stop offset="0.5466" stop-color="#6BA0FF"/>
<stop offset="0.6691" stop-color="#4F92FF"/>
<stop offset="0.7424" stop-color="#3C88FF"/>
<stop offset="0.8197" stop-color="#2B94FF"/>
<stop offset="0.9651" stop-color="#00B0FF"/>
</linearGradient>
<linearGradient id="paint1_linear_2_348" x1="-0.0253521" y1="-0.0605656" x2="80.0536" y2="-0.0605656" gradientUnits="userSpaceOnUse">
<stop offset="0.0195709" stop-color="#1CE4E6"/>
<stop offset="0.2606" stop-color="#1BCDFF"/>
<stop offset="0.5466" stop-color="#6BA0FF"/>
<stop offset="0.6691" stop-color="#4F92FF"/>
<stop offset="0.7424" stop-color="#3C88FF"/>
<stop offset="0.8197" stop-color="#2B94FF"/>
<stop offset="0.9651" stop-color="#00B0FF"/>
</linearGradient>
<linearGradient id="paint2_linear_2_348" x1="4.96687" y1="4.94946" x2="74.9486" y2="4.94946" gradientUnits="userSpaceOnUse">
<stop offset="0.0195709" stop-color="#1CE4E6"/>
<stop offset="0.2606" stop-color="#1BCDFF"/>
<stop offset="0.5466" stop-color="#6BA0FF"/>
<stop offset="0.6691" stop-color="#4F92FF"/>
<stop offset="0.7424" stop-color="#3C88FF"/>
<stop offset="0.8197" stop-color="#2B94FF"/>
<stop offset="0.9651" stop-color="#00B0FF"/>
</linearGradient>
<linearGradient id="paint3_linear_2_348" x1="9.71622" y1="9.76211" x2="69.7657" y2="9.76211" gradientUnits="userSpaceOnUse">
<stop offset="0.0195709" stop-color="#1CE4E6"/>
<stop offset="0.2606" stop-color="#1BCDFF"/>
<stop offset="0.5466" stop-color="#6BA0FF"/>
<stop offset="0.6691" stop-color="#4F92FF"/>
<stop offset="0.7424" stop-color="#3C88FF"/>
<stop offset="0.8197" stop-color="#2B94FF"/>
<stop offset="0.9651" stop-color="#00B0FF"/>
</linearGradient>
</defs>
</svg>
